# xmcd
#
# Track frame offsets:
#	150
#	10277
#	26441
#	46142
#	70522
#	83688
#	100654
#	111398
#	130883
#	148002
#
# Disc length: 2163 seconds
#
# Revision: 0
# Processed by: cddbd v1.5.1PL0 Copyright (c) Steve Scherf et al.
# Submitted via: dBpowerAMP V4.0
#
DISCID=7908710a
DTITLE=Karen Vance and 32-20 - Mood Swings
DYEAR=1900
DGENRE=Blues
TTITLE0=You're Wrong
TTITLE1=32-20 Blues
TTITLE2=I'm Worth It
TTITLE3=Send Me Someone To Love
TTITLE4=Muddy Water
TTITLE5=Kiss and Say Goodbye
TTITLE6=I Like It
TTITLE7=Left Me The Blues
TTITLE8=Waitin' for the Sun
TTITLE9=Between The Lines
EXTD=
EXTT0=
EXTT1=
EXTT2=
EXTT3=
EXTT4=
EXTT5=
EXTT6=
EXTT7=
EXTT8=
EXTT9=
PLAYORDER=
